<?xml version="1.0" encoding="UTF-8" standalone="no"?>
<svg
   width="375"
   height="423"
   version="1.1"
   id="svg25"
   sodipodi:docname="bg-intro-mobile.svg"
   inkscape:version="1.1 (c68e22c387, 2021-05-23)"
   xmlns:inkscape="http://www.inkscape.org/namespaces/inkscape"
   xmlns:sodipodi="http://sodipodi.sourceforge.net/DTD/sodipodi-0.dtd"
   xmlns:xlink="http://www.w3.org/1999/xlink"
   xmlns="http://www.w3.org/2000/svg"
   xmlns:svg="http://www.w3.org/2000/svg">
  <sodipodi:namedview
     id="namedview27"
     pagecolor="#505050"
     bordercolor="#ffffff"
     borderopacity="1"
     inkscape:pageshadow="0"
     inkscape:pageopacity="0"
     inkscape:pagecheckerboard="1"
     showgrid="false"
     inkscape:zoom="0.61465721"
     inkscape:cx="70.771154"
     inkscape:cy="155.37115"
     inkscape:window-width="1366"
     inkscape:window-height="705"
     inkscape:window-x="-8"
     inkscape:window-y="-8"
     inkscape:window-maximized="1"
     inkscape:current-layer="svg25" />
  <defs
     id="defs15">
    <linearGradient
       id="c"
       x1="194.97318"
       x2="700.20679"
       y1="184.63446"
       y2="324.69751"
       gradientTransform="scale(1.2779963,0.78247487)"
       gradientUnits="userSpaceOnUse">
      <stop
         offset="0%"
         stop-color="#33D35E"
         id="stop2" />
      <stop
         offset="100%"
         stop-color="#2AB6D9"
         id="stop4" />
    </linearGradient>
    <filter
       id="a"
       width="1.2850053"
       height="1.470529"
       x="-0.14250265"
       y="-0.23274559"
       filterUnits="objectBoundingBox">
      <feOffset
         dy="2"
         in="SourceAlpha"
         result="shadowOffsetOuter1"
         id="feOffset7" />
      <feGaussianBlur
         in="shadowOffsetOuter1"
         result="shadowBlurOuter1"
         stdDeviation="38.5"
         id="feGaussianBlur9" />
      <feColorMatrix
         in="shadowBlurOuter1"
         values="0 0 0 0 0 0 0 0 0 0 0 0 0 0 0 0 0 0 0.0240111451 0"
         id="feColorMatrix11" />
    </filter>
    <path
       id="b"
       d="M42.46 162.61l70.744 70.76a100 100 0 0070.719 29.298h11.03a100 100 0 0170.719 29.298l75.718 75.736A100 100 0 00412.109 397H633.78c27.507 0 49.805-22.299 49.805-49.805a49.805 49.805 0 00-14.583-35.213l-52.835-52.848c-7.359-7.36-7.357-19.294.003-26.653a18.846 18.846 0 0113.325-5.518c10.408 0 18.846-8.438 18.846-18.846 0-4.997-1.985-9.79-5.518-13.325L534.747 86.691a100 100 0 00-70.72-29.298H352.013a97.948 97.948 0 01-69.267-28.696A97.948 97.948 0 00213.477 0H84.94c-19.435 0-35.19 15.755-35.19 35.19a35.19 35.19 0 0010.304 24.88L77.65 77.669c9.715 9.717 9.713 25.47-.004 35.185a24.88 24.88 0 01-17.59 7.285c-13.742 0-24.88 11.14-24.88 24.88a24.88 24.88 0 007.284 17.59z" />
  </defs>
  <g
     fill="none"
     fill-rule="evenodd"
     transform="translate(19.884615,1.6884615)"
     id="g23">
    <use
       fill="#000000"
       filter="url(#a)"
       xlink:href="#b"
       id="use17"
       x="0"
       y="0"
       width="100%"
       height="100%" />
    <use
       fill="#2d314d"
       xlink:href="#b"
       id="use19"
       x="0"
       y="0"
       width="100%"
       height="100%" />
    <path
       fill="url(#c)"
       d="m 256.46,163.61 70.744,70.76 a 100,100 0 0 0 70.719,29.298 h 11.03 a 100,100 0 0 1 70.719,29.298 l 75.718,75.736 A 100,100 0 0 0 626.109,398 H 847.78 c 27.507,0 49.805,-22.299 49.805,-49.805 a 49.805,49.805 0 0 0 -14.583,-35.213 l -52.835,-52.848 c -7.359,-7.36 -7.357,-19.294 0.003,-26.653 a 18.846,18.846 0 0 1 13.325,-5.518 c 10.408,0 18.846,-8.438 18.846,-18.846 0,-4.997 -1.985,-9.79 -5.518,-13.325 L 748.747,87.691 A 100,100 0 0 0 678.027,58.393 H 566.013 A 97.948,97.948 0 0 1 496.746,29.697 97.948,97.948 0 0 0 427.477,1 H 298.94 c -19.435,0 -35.19,15.755 -35.19,35.19 a 35.19,35.19 0 0 0 10.304,24.88 l 17.595,17.599 c 9.715,9.717 9.713,25.47 -0.004,35.185 a 24.88,24.88 0 0 1 -17.59,7.285 c -13.742,0 -24.88,11.14 -24.88,24.88 a 24.88,24.88 0 0 0 7.284,17.59 z"
       id="path21"
       style="fill:url(#c)" />
  </g>
</svg>
